<?xml version="1.0" encoding="UTF-8"?>
<svg width="800" height="600" viewBox="0 0 800 600" xmlns="http://www.w3.org/2000/svg">
  <defs>
    <radialGradient id="bubbleGradient" cx="40%" cy="40%" r="60%">
      <stop offset="0%" style="stop-color:rgba(255,255,255,0.15);stop-opacity:1" />
      <stop offset="100%" style="stop-color:rgba(255,255,255,0.05);stop-opacity:1" />
    </radialGradient>
    <radialGradient id="shineGradient" cx="30%" cy="30%" r="40%">
      <stop offset="0%" style="stop-color:rgba(255,255,255,0.5);stop-opacity:1" />
      <stop offset="100%" style="stop-color:rgba(255,255,255,0);stop-opacity:1" />
    </radialGradient>
  </defs>

  <!-- Groupe de bulles 1 -->
  <g transform="translate(100,100)">
    <circle cx="0" cy="0" r="40" fill="url(#bubbleGradient)" />
    <ellipse cx="-10" cy="-10" rx="20" ry="15" fill="url(#shineGradient)" />
  </g>

  <!-- Groupe de bulles 2 -->
  <g transform="translate(300,200)">
    <circle cx="0" cy="0" r="60" fill="url(#bubbleGradient)" />
    <ellipse cx="-15" cy="-15" rx="30" ry="25" fill="url(#shineGradient)" />
  </g>

  <!-- Groupe de bulles 3 -->
  <g transform="translate(500,150)">
    <circle cx="0" cy="0" r="35" fill="url(#bubbleGradient)" />
    <ellipse cx="-8" cy="-8" rx="17" ry="12" fill="url(#shineGradient)" />
  </g>

  <!-- Groupe de bulles 4 -->
  <g transform="translate(200,400)">
    <circle cx="0" cy="0" r="45" fill="url(#bubbleGradient)" />
    <ellipse cx="-12" cy="-12" rx="22" ry="17" fill="url(#shineGradient)" />
  </g>

  <!-- Groupe de bulles 5 -->
  <g transform="translate(600,300)">
    <circle cx="0" cy="0" r="50" fill="url(#bubbleGradient)" />
    <ellipse cx="-13" cy="-13" rx="25" ry="20" fill="url(#shineGradient)" />
  </g>

  <!-- Petites bulles dispersées -->
  <g transform="translate(400,100)">
    <circle cx="0" cy="0" r="20" fill="url(#bubbleGradient)" />
    <ellipse cx="-5" cy="-5" rx="10" ry="8" fill="url(#shineGradient)" />
  </g>

  <g transform="translate(150,300)">
    <circle cx="0" cy="0" r="25" fill="url(#bubbleGradient)" />
    <ellipse cx="-6" cy="-6" rx="12" ry="10" fill="url(#shineGradient)" />
  </g>

  <g transform="translate(700,400)">
    <circle cx="0" cy="0" r="30" fill="url(#bubbleGradient)" />
    <ellipse cx="-7" cy="-7" rx="15" ry="12" fill="url(#shineGradient)" />
  </g>
</svg>
