<?xml version="1.0" encoding="UTF-8"?>
<svg width="1200" height="800" viewBox="0 0 1200 800" xmlns="http://www.w3.org/2000/svg">
  <defs>
    <radialGradient id="bubbleGradient" cx="40%" cy="40%" r="60%">
      <stop offset="0%" style="stop-color:rgba(255,255,255,0.15);stop-opacity:1" />
      <stop offset="100%" style="stop-color:rgba(255,255,255,0.05);stop-opacity:1" />
    </radialGradient>
    <radialGradient id="shineGradient" cx="30%" cy="30%" r="40%">
      <stop offset="0%" style="stop-color:rgba(255,255,255,0.5);stop-opacity:1" />
      <stop offset="100%" style="stop-color:rgba(255,255,255,0);stop-opacity:1" />
    </radialGradient>
  </defs>

  <!-- Grosses bulles -->
  <g transform="translate(150,100)">
    <circle cx="0" cy="0" r="45" fill="url(#bubbleGradient)" />
    <ellipse cx="-12" cy="-12" rx="22" ry="17" fill="url(#shineGradient)" />
  </g>

  <g transform="translate(1000,200)">
    <circle cx="0" cy="0" r="50" fill="url(#bubbleGradient)" />
    <ellipse cx="-13" cy="-13" rx="25" ry="20" fill="url(#shineGradient)" />
  </g>

  <g transform="translate(900,500)">
    <circle cx="0" cy="0" r="55" fill="url(#bubbleGradient)" />
    <ellipse cx="-14" cy="-14" rx="27" ry="22" fill="url(#shineGradient)" />
  </g>

  <g transform="translate(300,300)">
    <circle cx="0" cy="0" r="48" fill="url(#bubbleGradient)" />
    <ellipse cx="-12" cy="-12" rx="24" ry="19" fill="url(#shineGradient)" />
  </g>

  <!-- Bulles moyennes -->
  <g transform="translate(250,650)">
    <circle cx="0" cy="0" r="35" fill="url(#bubbleGradient)" />
    <ellipse cx="-9" cy="-9" rx="17" ry="14" fill="url(#shineGradient)" />
  </g>

  <g transform="translate(600,300)">
    <circle cx="0" cy="0" r="40" fill="url(#bubbleGradient)" />
    <ellipse cx="-10" cy="-10" rx="20" ry="15" fill="url(#shineGradient)" />
  </g>

  <g transform="translate(400,200)">
    <circle cx="0" cy="0" r="30" fill="url(#bubbleGradient)" />
    <ellipse cx="-8" cy="-8" rx="15" ry="12" fill="url(#shineGradient)" />
  </g>

  <g transform="translate(750,200)">
    <circle cx="0" cy="0" r="32" fill="url(#bubbleGradient)" />
    <ellipse cx="-8" cy="-8" rx="16" ry="13" fill="url(#shineGradient)" />
  </g>

  <!-- Petites bulles -->
  <g transform="translate(100,400)">
    <circle cx="0" cy="0" r="20" fill="url(#bubbleGradient)" />
    <ellipse cx="-5" cy="-5" rx="10" ry="8" fill="url(#shineGradient)" />
  </g>

  <g transform="translate(800,100)">
    <circle cx="0" cy="0" r="15" fill="url(#bubbleGradient)" />
    <ellipse cx="-4" cy="-4" rx="7" ry="6" fill="url(#shineGradient)" />
  </g>

  <g transform="translate(500,700)">
    <circle cx="0" cy="0" r="25" fill="url(#bubbleGradient)" />
    <ellipse cx="-6" cy="-6" rx="12" ry="10" fill="url(#shineGradient)" />
  </g>

  <g transform="translate(1100,600)">
    <circle cx="0" cy="0" r="18" fill="url(#bubbleGradient)" />
    <ellipse cx="-5" cy="-5" rx="9" ry="7" fill="url(#shineGradient)" />
  </g>

  <g transform="translate(450,500)">
    <circle cx="0" cy="0" r="22" fill="url(#bubbleGradient)" />
    <ellipse cx="-6" cy="-6" rx="11" ry="9" fill="url(#shineGradient)" />
  </g>

  <!-- Très petites bulles -->
  <g transform="translate(300,150)">
    <circle cx="0" cy="0" r="12" fill="url(#bubbleGradient)" />
    <ellipse cx="-3" cy="-3" rx="6" ry="5" fill="url(#shineGradient)" />
  </g>

  <g transform="translate(700,400)">
    <circle cx="0" cy="0" r="10" fill="url(#bubbleGradient)" />
    <ellipse cx="-3" cy="-3" rx="5" ry="4" fill="url(#shineGradient)" />
  </g>

  <g transform="translate(200,550)">
    <circle cx="0" cy="0" r="8" fill="url(#bubbleGradient)" />
    <ellipse cx="-2" cy="-2" rx="4" ry="3" fill="url(#shineGradient)" />
  </g>

  <g transform="translate(950,300)">
    <circle cx="0" cy="0" r="9" fill="url(#bubbleGradient)" />
    <ellipse cx="-2" cy="-2" rx="4" ry="3" fill="url(#shineGradient)" />
  </g>

  <g transform="translate(550,150)">
    <circle cx="0" cy="0" r="7" fill="url(#bubbleGradient)" />
    <ellipse cx="-2" cy="-2" rx="3" ry="2" fill="url(#shineGradient)" />
  </g>

  <!-- Micro bulles -->
  <g transform="translate(850,450)">
    <circle cx="0" cy="0" r="5" fill="url(#bubbleGradient)" />
    <ellipse cx="-1" cy="-1" rx="2" ry="2" fill="url(#shineGradient)" />
  </g>

  <g transform="translate(150,250)">
    <circle cx="0" cy="0" r="4" fill="url(#bubbleGradient)" />
    <ellipse cx="-1" cy="-1" rx="2" ry="1" fill="url(#shineGradient)" />
  </g>
</svg>
